<?xml version="1.0" standalone="no"?>
<!DOCTYPE svg PUBLIC "-//W3C//DTD SVG 20010904//EN"
 "http://www.w3.org/TR/2001/REC-SVG-20010904/DTD/svg10.dtd">
<svg version="1.0" xmlns="http://www.w3.org/2000/svg"
 width="700.000000pt" height="700.000000pt" viewBox="0 0 700.000000 700.000000"
 preserveAspectRatio="xMidYMid meet">
<metadata>
Created by potrace 1.11, written by Peter Selinger 2001-2013
</metadata>
<g transform="translate(0.000000,700.000000) scale(0.100000,-0.100000)"
fill="#000000" stroke="none">
<path d="M2728 6644 c-2 -1 -16 -4 -31 -6 -46 -6 -112 -61 -137 -114 -42 -85
-22 -201 44 -263 55 -52 103 -59 402 -57 237 1 274 -1 275 -14 1 -18 1 -126 0
-156 -1 -23 6 -21 -161 -40 -90 -11 -209 -34 -331 -64 -87 -22 -319 -98 -334
-110 -5 -4 -21 -11 -35 -15 -42 -13 -263 -122 -345 -170 -347 -206 -651 -483
-887 -810 -126 -176 -285 -481 -356 -686 -36 -102 -87 -275 -97 -327 -39 -205
-51 -285 -61 -422 -4 -63 -4 -358 0 -400 3 -19 7 -65 10 -101 4 -36 9 -76 11
-90 2 -13 9 -53 15 -89 17 -107 20 -120 50 -235 58 -216 110 -352 212 -556
328 -653 899 -1156 1592 -1401 193 -68 456 -127 638 -143 40 -3 93 -8 118 -11
150 -15 419 -1 630 31 334 52 676 174 976 350 601 351 1056 916 1269 1577 34
104 78 274 89 343 2 17 8 50 11 75 4 25 9 54 11 65 19 100 27 570 11 690 -5
33 -10 76 -13 95 -67 490 -277 974 -592 1367 -81 100 -96 118 -165 189 l-39
42 111 111 111 111 68 -67 c73 -72 106 -90 178 -97 161 -16 283 159 215 310
-25 56 -570 600 -626 625 -117 53 -269 -16 -300 -136 -26 -100 -3 -166 87
-256 32 -32 58 -64 58 -70 0 -21 -228 -241 -242 -233 -7 4 -51 32 -98 63 -207
137 -419 241 -645 318 -93 31 -294 86 -358 97 -144 25 -159 27 -282 42 -27 4
-52 8 -54 10 -5 4 -2 177 4 182 2 2 120 4 262 5 193 0 268 4 299 14 150 51
195 249 83 362 -72 71 -49 70 -896 69 -414 0 -754 -2 -755 -4z m1027 -1077
c11 -3 40 -8 65 -11 518 -75 968 -294 1339 -651 398 -383 645 -878 718 -1440
10 -75 10 -491 0 -565 -72 -531 -295 -998 -657 -1374 -142 -148 -293 -268
-475 -381 -84 -52 -281 -157 -292 -156 -2 0 -22 -8 -45 -18 -107 -46 -351
-118 -453 -135 -93 -15 -112 -18 -135 -22 -172 -29 -509 -24 -715 12 -740 128
-1364 580 -1720 1244 -118 222 -222 533 -250 755 -2 11 -6 45 -10 75 -13 101
-15 134 -14 285 0 178 6 265 29 395 5 30 12 70 15 89 3 19 8 37 10 41 2 3 6
17 8 31 40 218 204 587 355 799 18 25 40 56 50 70 90 127 279 323 425 440 366
293 829 481 1271 517 39 3 72 7 74 8 5 4 385 -3 407 -8z"/>
<path d="M3435 4806 c-81 -26 -136 -85 -151 -162 -4 -22 -7 -357 -7 -746 0
-793 -3 -764 72 -831 67 -61 66 -61 628 -61 575 1 570 0 637 74 73 81 75 201
5 291 -58 73 -57 73 -499 79 l-395 5 -1 575 c0 316 -4 592 -8 614 -23 121
-161 201 -281 162z"/>
</g>
</svg>
